<svg xmlns="http://www.w3.org/2000/svg" viewBox="0 0 24 24" aria-hidden="true"><path d="M8 4h8v3.2a4 4 0 0 1-8 0V4Z" fill="currentColor"/><path d="M6 4h2v2.2A2.8 2.8 0 0 1 5.2 9H4V6a2 2 0 0 1 2-2Z" fill="currentColor" opacity=".72"/><path d="M18 4h-2v2.2A2.8 2.8 0 0 0 18.8 9H20V6a2 2 0 0 0-2-2Z" fill="currentColor" opacity=".72"/><rect x="10.2" y="13" width="3.6" height="3.2" rx=".7" fill="currentColor"/><rect x="7.4" y="16" width="9.2" height="2.2" rx="1" fill="currentColor"/><rect x="5.8" y="18.4" width="12.4" height="2" rx="1" fill="currentColor" opacity=".82"/></svg>