<svg xmlns="http://www.w3.org/2000/svg" viewBox="0 0 900 1600" preserveAspectRatio="xMidYMid slice">
  <defs>
    <linearGradient id="g" x1="0" x2="1" y1="0" y2="1"><stop stop-color="#0d2545"/><stop offset=".5" stop-color="#081429"/><stop offset="1" stop-color="#030812"/></linearGradient>
    <radialGradient id="r" cx="50%" cy="35%" r="60%"><stop stop-color="#1f5d9d" stop-opacity=".55"/><stop offset=".45" stop-color="#0b1f3c" stop-opacity=".25"/><stop offset="1" stop-color="#020712" stop-opacity="0"/></radialGradient>
  </defs>
  <rect width="900" height="1600" fill="url(#g)"/>
  <circle cx="450" cy="560" r="520" fill="url(#r)"/>
  <path d="M0 1080c170-110 270-90 430-185 240-142 265-330 470-430v1135H0z" fill="#031325" opacity=".55"/>
  <path d="M80 980c100-80 130-220 210-310 120-135 295-118 440-300" fill="none" stroke="#4d91ff" stroke-opacity=".13" stroke-width="20"/>
  <path d="M120 360c70-150 230-210 340-210 140 0 255 84 330 214" fill="none" stroke="#ffd76a" stroke-opacity=".06" stroke-width="18"/>
  <g opacity=".16" fill="#ffffff">
    <circle cx="160" cy="320" r="3"/><circle cx="650" cy="260" r="3"/><circle cx="790" cy="760" r="4"/><circle cx="245" cy="880" r="3"/><circle cx="520" cy="1120" r="3"/>
  </g>
</svg>
